<svg width="24" height="24" viewBox="0 0 24 24" fill="none" xmlns="http://www.w3.org/2000/svg">
<path d="M12.0772 20.8616V23.0769M6.16949 3.13848H13.5541C14.7292 3.13848 15.8562 3.60529 16.6871 4.43622C17.5181 5.26715 17.9849 6.39414 17.9849 7.56925C17.9849 8.74436 17.5181 9.87135 16.6871 10.7023C15.8562 11.5332 14.7292 12 13.5541 12H6.16949V3.13848ZM6.16949 3.13848V12V3.13848ZM6.16949 3.13848H3.9541H6.16949ZM6.16949 3.13848V0.923096V3.13848ZM6.16949 12H15.031C16.2061 12 17.3331 12.4668 18.1641 13.2978C18.995 14.1287 19.4618 15.2557 19.4618 16.4308C19.4618 17.6059 18.995 18.7329 18.1641 19.5638C17.3331 20.3947 16.2061 20.8616 15.031 20.8616H6.16949V12ZM6.16949 12V20.8616V12ZM6.16949 12H3.9541H6.16949ZM6.16949 20.8616H3.9541H6.16949ZM6.16949 20.8616V23.0769V20.8616ZM12.0772 0.923096V3.13848V0.923096Z" stroke="#6287A1" stroke-width="1.6" stroke-linecap="round" stroke-linejoin="round"/>
</svg>
