<svg width="24" height="24" viewBox="0 0 24 24" fill="none" xmlns="http://www.w3.org/2000/svg">
<g clip-path="url(#clip0)">
<path d="M2.40001 0.8V0C2.18783 0 1.98435 0.0842855 1.83432 0.234315C1.68429 0.384344 1.60001 0.587827 1.60001 0.8H2.40001ZM2.40001 21.6H1.60001C1.60001 21.8122 1.68429 22.0157 1.83432 22.1657C1.98435 22.3157 2.18783 22.4 2.40001 22.4V21.6ZM6.40001 0V24H8.00001V0H6.40001ZM2.40001 1.6H18.4V0H2.40001V1.6ZM20.8 4V18.4H22.4V4H20.8ZM18.4 20.8H2.40001V22.4H18.4V20.8ZM3.20001 21.6V0.8H1.60001V21.6H3.20001ZM20.8 18.4C20.8 19.0365 20.5472 19.647 20.0971 20.0971C19.647 20.5471 19.0365 20.8 18.4 20.8V22.4C19.4609 22.4 20.4783 21.9786 21.2284 21.2284C21.9786 20.4783 22.4 19.4609 22.4 18.4H20.8ZM18.4 1.6C19.0365 1.6 19.647 1.85286 20.0971 2.30294C20.5472 2.75303 20.8 3.36348 20.8 4H22.4C22.4 2.93913 21.9786 1.92172 21.2284 1.17157C20.4783 0.421427 19.4609 0 18.4 0V1.6ZM11.2 8H17.6V6.4H11.2V8Z" fill="#6287A1"/>
</g>
<defs>
<clipPath id="clip0">
<rect width="24" height="24" fill="white"/>
</clipPath>
</defs>
</svg>
