<svg width="24" height="24" viewBox="0 0 24 24" fill="none" xmlns="http://www.w3.org/2000/svg">
<path fill-rule="evenodd" clip-rule="evenodd" d="M21.6 0.200012C22.0418 0.200012 22.4 0.558184 22.4 1.00001V19.2C22.4 19.6418 22.0418 20 21.6 20C21.1582 20 20.8 19.6418 20.8 19.2V1.00001C20.8 0.558184 21.1582 0.200012 21.6 0.200012ZM15.2 4.00001C15.6418 4.00001 16 4.35818 16 4.80001V19.2C16 19.6418 15.6418 20 15.2 20C14.7582 20 14.4 19.6418 14.4 19.2V4.80001C14.4 4.35818 14.7582 4.00001 15.2 4.00001ZM8.8 8.80001C9.24183 8.80001 9.6 9.15819 9.6 9.60001V19.2C9.6 19.6418 9.24183 20 8.8 20C8.35817 20 8 19.6418 8 19.2V9.60001C8 9.15819 8.35817 8.80001 8.8 8.80001ZM2.4 13.6C2.84182 13.6 3.2 13.9582 3.2 14.4V19.2C3.2 19.6418 2.84182 20 2.4 20C1.95817 20 1.6 19.6418 1.6 19.2V14.4C1.6 13.9582 1.95817 13.6 2.4 13.6ZM0.199997 23.2C0.199997 22.7582 0.558169 22.4 0.999997 22.4H23C23.4418 22.4 23.8 22.7582 23.8 23.2C23.8 23.6418 23.4418 24 23 24H0.999997C0.558169 24 0.199997 23.6418 0.199997 23.2Z" fill="#6287A1"/>
</svg>
