<svg width="24" height="24" viewBox="0 0 24 24" fill="none" xmlns="http://www.w3.org/2000/svg">
<g clip-path="url(#clip0)">
<path d="M23.2 10.3952H24V10.1728L23.8864 9.98241L23.2 10.3952ZM0.8 10.3952L0.1136 9.98241L0 10.176V10.3968H0.8V10.3952ZM4.2016 4.72961L3.5152 4.31681L4.2016 4.72961ZM19.7984 4.72961L20.4848 4.31681L19.7984 4.72961ZM5.6 18.4V17.6H4.8V18.4H5.6ZM18.4 18.4H19.2V17.6H18.4V18.4ZM22.4 10.3952V20H24V10.3952H22.4ZM1.4864 10.8064L4.888 5.14241L3.5152 4.31681L0.1136 9.98401L1.4864 10.808V10.8064ZM8.3168 3.20001H15.6832V1.60001H8.3168V3.20001ZM19.112 5.14081L22.5136 10.8064L23.8864 9.98241L20.4848 4.31841L19.112 5.14081ZM4 20.8H2.4V22.4H4V20.8ZM4.8 18.4V20H6.4V18.4H4.8ZM21.6 20.8H20V22.4H21.6V20.8ZM19.2 20V18.4H17.6V20H19.2ZM18.4 17.6H5.6V19.2H18.4V17.6ZM1.6 20V10.3952H0V20H1.6ZM20 20.8C19.7878 20.8 19.5843 20.7157 19.4343 20.5657C19.2843 20.4157 19.2 20.2122 19.2 20H17.6C17.6 20.6365 17.8529 21.247 18.3029 21.6971C18.753 22.1472 19.3635 22.4 20 22.4V20.8ZM4 22.4C4.63652 22.4 5.24697 22.1472 5.69706 21.6971C6.14714 21.247 6.4 20.6365 6.4 20H4.8C4.8 20.2122 4.71571 20.4157 4.56569 20.5657C4.41566 20.7157 4.21217 20.8 4 20.8V22.4ZM2.4 20.8C2.18783 20.8 1.98434 20.7157 1.83431 20.5657C1.68429 20.4157 1.6 20.2122 1.6 20H0C0 20.6365 0.252856 21.247 0.702944 21.6971C1.15303 22.1472 1.76348 22.4 2.4 22.4V20.8ZM15.6832 3.20001C16.3736 3.20008 17.0523 3.37887 17.6531 3.71897C18.254 4.05906 18.7566 4.5489 19.112 5.14081L20.4848 4.31681C19.987 3.48801 19.2832 2.80219 18.4418 2.32609C17.6003 1.85 16.65 1.59986 15.6832 1.60001V3.20001ZM4.888 5.14081C5.24343 4.5489 5.74602 4.05906 6.34687 3.71897C6.94772 3.37887 7.62637 3.20008 8.3168 3.20001V1.60001C7.35029 1.60013 6.40026 1.85041 5.55913 2.32649C4.71801 2.80257 4.01442 3.48824 3.5168 4.31681L4.888 5.14081ZM22.4 20C22.4 20.2122 22.3157 20.4157 22.1657 20.5657C22.0157 20.7157 21.8122 20.8 21.6 20.8V22.4C22.2365 22.4 22.847 22.1472 23.2971 21.6971C23.7471 21.247 24 20.6365 24 20H22.4ZM3.2 16H8V14.4H3.2V16ZM20.8 14.4H16V16H20.8V14.4ZM4.8 11.2H19.2V9.60001H4.8V11.2Z" fill="#6287A1"/>
</g>
<defs>
<clipPath id="clip0">
<rect width="24" height="24" fill="white"/>
</clipPath>
</defs>
</svg>
