<svg width="24" height="24" viewBox="0 0 24 24" fill="none" xmlns="http://www.w3.org/2000/svg">
<path d="M0.800049 8.8H23.2H0.800049ZM3.20005 15.2H12.8H3.20005ZM16 15.2H20.8H16ZM0.800049 5.6V18.4C0.800049 18.8243 0.96862 19.2313 1.26868 19.5314C1.56874 19.8314 1.9757 20 2.40005 20H21.6C22.0244 20 22.4314 19.8314 22.7314 19.5314C23.0315 19.2313 23.2 18.8243 23.2 18.4V5.6C23.2 5.17565 23.0315 4.76869 22.7314 4.46863C22.4314 4.16857 22.0244 4 21.6 4H2.40005C1.9757 4 1.56874 4.16857 1.26868 4.46863C0.96862 4.76869 0.800049 5.17565 0.800049 5.6V5.6Z" stroke="#6287A1" stroke-width="1.6"/>
</svg>
