<svg width="24" height="24" viewBox="0 0 24 24" fill="none" xmlns="http://www.w3.org/2000/svg">
<g clip-path="url(#clip0)">
<path fill-rule="evenodd" clip-rule="evenodd" d="M0.570123 0.033736C0.993317 -0.0932223 1.4393 0.146924 1.56626 0.570119L2.35523 3.2H20C21.0609 3.2 22.0783 3.62142 22.8284 4.37157C23.5786 5.12172 24 6.13913 24 7.2V17.6H5.00478L0.0337398 1.02988C-0.0932185 0.606681 0.146928 0.160694 0.570123 0.033736ZM2.83523 4.8L6.19523 16H22.4V7.2C22.4 6.56348 22.1471 5.95303 21.6971 5.50294C21.247 5.05285 20.6365 4.8 20 4.8H2.83523ZM8.8 20.8C8.58783 20.8 8.38435 20.8843 8.23432 21.0343C8.08429 21.1843 8 21.3878 8 21.6C8 21.8122 8.08429 22.0157 8.23432 22.1657C8.38434 22.3157 8.58783 22.4 8.8 22.4C9.01218 22.4 9.21566 22.3157 9.36569 22.1657C9.51572 22.0157 9.6 21.8122 9.6 21.6C9.6 21.3878 9.51572 21.1843 9.36569 21.0343C9.21566 20.8843 9.01217 20.8 8.8 20.8ZM7.10294 19.9029C7.55303 19.4529 8.16348 19.2 8.8 19.2C9.43652 19.2 10.047 19.4529 10.4971 19.9029C10.9471 20.353 11.2 20.9635 11.2 21.6C11.2 22.2365 10.9471 22.847 10.4971 23.2971C10.047 23.7471 9.43652 24 8.8 24C8.16348 24 7.55303 23.7471 7.10294 23.2971C6.65286 22.847 6.4 22.2365 6.4 21.6C6.4 20.9635 6.65286 20.353 7.10294 19.9029ZM20 20.8C19.7878 20.8 19.5843 20.8843 19.4343 21.0343C19.2843 21.1843 19.2 21.3878 19.2 21.6C19.2 21.8122 19.2843 22.0157 19.4343 22.1657C19.5843 22.3157 19.7878 22.4 20 22.4C20.2122 22.4 20.4157 22.3157 20.5657 22.1657C20.7157 22.0157 20.8 21.8122 20.8 21.6C20.8 21.3878 20.7157 21.1843 20.5657 21.0343C20.4157 20.8843 20.2122 20.8 20 20.8ZM18.3029 19.9029C18.753 19.4529 19.3635 19.2 20 19.2C20.6365 19.2 21.247 19.4529 21.6971 19.9029C22.1471 20.353 22.4 20.9635 22.4 21.6C22.4 22.2365 22.1471 22.847 21.6971 23.2971C21.247 23.7471 20.6365 24 20 24C19.3635 24 18.753 23.7471 18.3029 23.2971C17.8529 22.847 17.6 22.2365 17.6 21.6C17.6 20.9635 17.8529 20.353 18.3029 19.9029Z" fill="#6287A1"/>
</g>
<defs>
<clipPath id="clip0">
<rect width="24" height="24" fill="white"/>
</clipPath>
</defs>
</svg>
