<svg width="24" height="24" viewBox="0 0 24 24" fill="none" xmlns="http://www.w3.org/2000/svg">
<path fill-rule="evenodd" clip-rule="evenodd" d="M6.63431 6.63431C6.94673 6.32189 7.45326 6.32189 7.76568 6.63431L12 10.8686L16.2343 6.63431C16.5467 6.32189 17.0533 6.32189 17.3657 6.63431C17.6781 6.94673 17.6781 7.45326 17.3657 7.76568L13.1314 12L17.3657 16.2343C17.6781 16.5467 17.6781 17.0533 17.3657 17.3657C17.0533 17.6781 16.5467 17.6781 16.2343 17.3657L12 13.1314L7.76568 17.3657C7.45326 17.6781 6.94673 17.6781 6.63431 17.3657C6.32189 17.0533 6.32189 16.5467 6.63431 16.2343L10.8686 12L6.63431 7.76568C6.32189 7.45326 6.32189 6.94673 6.63431 6.63431Z" fill="#6287A1"/>
</svg>
