<svg width="24" height="24" viewBox="0 0 24 24" fill="none" xmlns="http://www.w3.org/2000/svg">
<g clip-path="url(#clip0)">
<path d="M8.00002 8.79999H9.60002M14.4 15.2H16M16 7.99999L8.00002 16M10.8816 1.26399L9.07522 3.06719C8.77917 3.36377 8.37747 3.53066 7.95842 3.53119H5.11362C4.69437 3.53119 4.29228 3.69774 3.99583 3.99419C3.69937 4.29065 3.53282 4.69274 3.53282 5.11199V7.95679C3.53229 8.37584 3.3654 8.77754 3.06882 9.07359L1.26402 10.8832C0.967681 11.1796 0.801208 11.5816 0.801208 12.0008C0.801208 12.4199 0.967681 12.8219 1.26402 13.1184L3.07202 14.9248C3.21865 15.0715 3.33496 15.2456 3.4143 15.4372C3.49364 15.6288 3.53446 15.8342 3.53442 16.0416V18.8864C3.53442 19.76 4.24162 20.4672 5.11522 20.4672H7.96002C8.37922 20.4672 8.78082 20.6336 9.07682 20.9312L10.8848 22.7376C11.1813 23.0339 11.5833 23.2004 12.0024 23.2004C12.4216 23.2004 12.8236 23.0339 13.12 22.7376L14.9264 20.9296C15.2227 20.6336 15.6244 20.4673 16.0432 20.4672H18.888C19.3073 20.4672 19.7094 20.3006 20.0058 20.0042C20.3023 19.7077 20.4688 19.3056 20.4688 18.8864V16.0416C20.4688 15.6224 20.6352 15.2208 20.9328 14.9248L22.7392 13.1168C23.0356 12.8203 23.202 12.4183 23.202 11.9992C23.202 11.58 23.0356 11.178 22.7392 10.8816L20.9312 9.07519C20.6352 8.77888 20.4689 8.37721 20.4688 7.95839V5.11359C20.4688 4.69434 20.3023 4.29225 20.0058 3.9958C19.7094 3.69934 19.3073 3.53279 18.888 3.53279H16.0432C15.6242 3.53226 15.2225 3.36537 14.9264 3.06879L13.1168 1.26399C12.8204 0.967651 12.4184 0.801178 11.9992 0.801178C11.5801 0.801178 11.1781 0.967651 10.8816 1.26399Z" stroke="#6287A1" stroke-width="1.6" stroke-linecap="round" stroke-linejoin="round"/>
</g>
<defs>
<clipPath id="clip0">
<rect width="24" height="24" fill="white"/>
</clipPath>
</defs>
</svg>
