<svg width="24" height="24" viewBox="0 0 24 24" fill="none" xmlns="http://www.w3.org/2000/svg">
<g clip-path="url(#clip0)">
<path d="M0.8 16.8005L0.2336 16.2341L0 16.4693V16.8005H0.8ZM16.8 0.800545L17.3664 0.234145C17.2921 0.159644 17.2038 0.100535 17.1066 0.060205C17.0094 0.0198747 16.9052 -0.00088501 16.8 -0.00088501C16.6948 -0.00088501 16.5906 0.0198747 16.4934 0.060205C16.3962 0.100535 16.3079 0.159644 16.2336 0.234145L16.8 0.800545ZM23.2 7.20054L23.7664 7.76694C23.8409 7.69263 23.9 7.60435 23.9403 7.50716C23.9807 7.40997 24.0014 7.30577 24.0014 7.20054C24.0014 7.09532 23.9807 6.99112 23.9403 6.89393C23.9 6.79674 23.8409 6.70846 23.7664 6.63414L23.2 7.20054ZM7.2 23.2005V24.0005H7.5312L7.7664 23.7669L7.2 23.2005ZM0.8 23.2005H0C0 23.4127 0.0842855 23.6162 0.234315 23.7662C0.384344 23.9163 0.587827 24.0005 0.8 24.0005V23.2005ZM1.3664 17.3669L17.3664 1.36695L16.2336 0.234145L0.2336 16.2341L1.3664 17.3669ZM16.2336 1.36695L22.6336 7.76694L23.7664 6.63414L17.3664 0.234145L16.2336 1.36695ZM22.6336 6.63414L6.6336 22.6341L7.7664 23.7669L23.7664 7.76694L22.6336 6.63414ZM7.2 22.4005H0.8V24.0005H7.2V22.4005ZM1.6 23.2005V16.8005H0V23.2005H1.6Z" fill="#6287A1"/>
</g>
<defs>
<clipPath id="clip0">
<rect width="24" height="24" fill="white"/>
</clipPath>
</defs>
</svg>
