<svg width="18" height="18" viewBox="0 0 18 18" fill="none" xmlns="http://www.w3.org/2000/svg">
<path d="M0.599964 12.6003L0.17519 12.1755L0 12.3519V12.6003H0.599964ZM12.5992 0.601037L13.024 0.176262C12.9683 0.120389 12.9021 0.0760607 12.8292 0.0458148C12.7563 0.0155688 12.6782 0 12.5992 0C12.5203 0 12.4422 0.0155688 12.3693 0.0458148C12.2964 0.0760607 12.2302 0.120389 12.1745 0.176262L12.5992 0.601037ZM17.399 5.40075L17.8237 5.82553C17.8796 5.76979 17.9239 5.70359 17.9542 5.6307C17.9844 5.55781 18 5.47967 18 5.40075C18 5.32183 17.9844 5.24369 17.9542 5.1708C17.9239 5.09791 17.8796 5.03171 17.8237 4.97598L17.399 5.40075ZM5.39968 17.4V18H5.64806L5.82445 17.8248L5.39968 17.4ZM0.599964 17.4H0C0 17.5592 0.0632103 17.7118 0.175725 17.8243C0.288241 17.9368 0.440844 18 0.599964 18V17.4ZM1.02474 13.0251L13.024 1.02581L12.1745 0.176262L0.17519 12.1755L1.02474 13.0251ZM12.1745 1.02581L16.9742 5.82553L17.8237 4.97598L13.024 0.176262L12.1745 1.02581ZM16.9742 4.97598L4.9749 16.9753L5.82445 17.8248L17.8237 5.82553L16.9742 4.97598ZM5.39968 16.8001H0.599964V18H5.39968V16.8001ZM1.19993 17.4V12.6003H0V17.4H1.19993Z" fill="#6287A1"/>
</svg>
