<svg width="24" height="24" viewBox="0 0 24 24" fill="none" xmlns="http://www.w3.org/2000/svg">
<path d="M0.799988 7.19999L12 13.6L23.2 7.19999M2.39999 2.39999H21.6C22.0243 2.39999 22.4313 2.56856 22.7314 2.86862C23.0314 3.16868 23.2 3.57565 23.2 3.99999V20C23.2 20.4243 23.0314 20.8313 22.7314 21.1314C22.4313 21.4314 22.0243 21.6 21.6 21.6H2.39999C1.97564 21.6 1.56868 21.4314 1.26862 21.1314C0.968559 20.8313 0.799988 20.4243 0.799988 20V3.99999C0.799988 3.57565 0.968559 3.16868 1.26862 2.86862C1.56868 2.56856 1.97564 2.39999 2.39999 2.39999Z" stroke="#6287A1" stroke-width="1.6"/>
</svg>
