<svg width="24" height="24" viewBox="0 0 24 24" fill="none" xmlns="http://www.w3.org/2000/svg">
<path d="M12 14.4C8.29759 14.4 5.69759 12.5568 3.99519 10.6656C3.06495 9.62504 2.28461 8.45965 1.67679 7.2032C1.63226 7.10804 1.58958 7.01203 1.54879 6.9152L1.54239 6.904V6.9024L0.799987 7.2L0.0575867 7.4976V7.5008L0.0623867 7.5072C0.075709 7.54103 0.0895775 7.57463 0.103987 7.608L0.228787 7.8848C0.903179 9.28217 1.7703 10.578 2.80479 11.7344C4.70399 13.8432 7.70239 16 12 16V14.4ZM23.2 7.2C22.9522 7.1017 22.7047 7.0025 22.4576 6.9024L22.4528 6.9152L22.4288 6.9712L22.3232 7.2032C21.7153 8.45963 20.935 9.62502 20.0048 10.6656C18.304 12.5568 15.7024 14.4 12 14.4V16C16.2976 16 19.2976 13.8432 21.1952 11.7344C22.2297 10.578 23.0968 9.28219 23.7712 7.8848C23.8293 7.76011 23.8848 7.63422 23.9376 7.5072L23.9408 7.5008V7.4992H23.9424L23.2 7.2ZM12.8 19.2V15.2H11.2V19.2H12.8ZM2.16639 16.5664L5.36639 13.3664L4.23359 12.2336L1.03359 15.4336L2.16639 16.5664ZM18.6336 13.3664L21.8336 16.5664L22.9664 15.4336L19.7664 12.2336L18.6336 13.3664Z" fill="#6287A1"/>
</svg>
