<svg width="24" height="24" viewBox="0 0 24 24" fill="none" xmlns="http://www.w3.org/2000/svg">
<path d="M0.799997 12L0.0575969 11.7024C-0.0189548 11.8934 -0.0189548 12.1066 0.0575969 12.2976L0.799997 12ZM23.2 12L23.9424 12.2976C24.0189 12.1066 24.0189 11.8934 23.9424 11.7024L23.2 12ZM12 19.2C8.2976 19.2 5.6976 17.3568 3.9952 15.4656C3.06496 14.4251 2.28462 13.2597 1.6768 12.0032C1.63227 11.9081 1.58959 11.812 1.5488 11.7152L1.5424 11.704V11.7024L0.799997 12L0.0575969 12.2976V12.3008L0.0623969 12.3072C0.0757192 12.341 0.0895877 12.3746 0.103997 12.408L0.228797 12.6848C0.903207 14.0822 1.77032 15.378 2.8048 16.5344C4.704 18.6432 7.7024 20.8 12 20.8V19.2ZM0.799997 12L1.5424 12.2976L1.5488 12.2848C1.58784 12.1872 1.63054 12.0912 1.6768 11.9968C2.28462 10.7404 3.06496 9.57497 3.9952 8.53441C5.696 6.64321 8.2976 4.80001 12 4.80001V3.20001C7.7024 3.20001 4.7024 5.35681 2.8048 7.46561C1.77031 8.62201 0.903189 9.91785 0.228797 11.3152C0.170654 11.4399 0.115174 11.5658 0.0623969 11.6928L0.0591969 11.6992V11.7008H0.0559969L0.799997 12ZM12 4.80001C15.7024 4.80001 18.3024 6.64321 20.0048 8.53441C20.935 9.575 21.7153 10.7404 22.3232 11.9968C22.3679 12.0919 22.4105 12.1879 22.4512 12.2848L22.4576 12.296V12.2976L23.2 12L23.9424 11.7024V11.6992L23.9376 11.6928C23.9255 11.6585 23.9116 11.6249 23.896 11.592C23.7078 11.1701 23.4995 10.7573 23.272 10.3552C22.6854 9.32031 21.9891 8.35154 21.1952 7.46561C19.296 5.35681 16.2976 3.20001 12 3.20001V4.80001ZM23.2 12C22.9522 11.9017 22.7047 11.8025 22.4576 11.7024L22.4528 11.7152L22.4288 11.7712L22.3232 12.0032C21.7153 13.2596 20.935 14.425 20.0048 15.4656C18.304 17.3568 15.7024 19.2 12 19.2V20.8C16.2976 20.8 19.2976 18.6432 21.1952 16.536C22.2298 15.3791 23.097 14.0828 23.7712 12.6848C23.8293 12.5601 23.8848 12.4342 23.9376 12.3072L23.9408 12.3008V12.2992H23.9424L23.2 12ZM12 14.4C11.3635 14.4 10.753 14.1472 10.3029 13.6971C9.85285 13.247 9.6 12.6365 9.6 12H8C8 13.0609 8.42142 14.0783 9.17157 14.8284C9.92172 15.5786 10.9391 16 12 16V14.4ZM14.4 12C14.4 12.6365 14.1471 13.247 13.6971 13.6971C13.247 14.1472 12.6365 14.4 12 14.4V16C13.0609 16 14.0783 15.5786 14.8284 14.8284C15.5786 14.0783 16 13.0609 16 12H14.4ZM12 9.60001C12.6365 9.60001 13.247 9.85287 13.6971 10.303C14.1471 10.753 14.4 11.3635 14.4 12H16C16 10.9391 15.5786 9.92173 14.8284 9.17159C14.0783 8.42144 13.0609 8.00001 12 8.00001V9.60001ZM12 8.00001C10.9391 8.00001 9.92172 8.42144 9.17157 9.17159C8.42142 9.92173 8 10.9391 8 12H9.6C9.6 11.3635 9.85285 10.753 10.3029 10.303C10.753 9.85287 11.3635 9.60001 12 9.60001V8.00001Z" fill="#6287A1"/>
</svg>
