<svg width="18" height="18" viewBox="0 0 18 18" fill="none" xmlns="http://www.w3.org/2000/svg">
<path fill-rule="evenodd" clip-rule="evenodd" d="M9.00002 0.599945C9.22841 0.599945 9.43699 0.72961 9.53806 0.934419L11.9941 5.91115L17.4863 6.70938C17.7123 6.74223 17.9001 6.90055 17.9707 7.11777C18.0412 7.33499 17.9823 7.57343 17.8188 7.73284L13.8447 11.6059L14.7826 17.0766C14.8212 17.3016 14.7286 17.5291 14.5439 17.6634C14.3591 17.7976 14.1142 17.8153 13.912 17.709L8.99894 15.1264L4.08809 17.709C3.88594 17.8153 3.64098 17.7976 3.45619 17.6634C3.27141 17.5292 3.17885 17.3017 3.21744 17.0766L4.15534 11.6059L0.181252 7.73284C0.0176876 7.57343 -0.0411917 7.33499 0.029372 7.11777C0.0999356 6.90055 0.287703 6.74223 0.513721 6.70938L6.00596 5.91115L8.46197 0.934419C8.56304 0.72961 8.77163 0.599945 9.00002 0.599945ZM9.31029 13.9344L13.3945 16.0813L12.6086 11.4977C12.5753 11.3031 12.6398 11.1045 12.7813 10.9667L16.1105 7.72204L11.5093 7.05331C11.3139 7.0249 11.145 6.90216 11.0576 6.72507L9.00002 2.55575L6.94247 6.72507C6.85507 6.90216 6.68614 7.0249 6.49071 7.05331L1.88951 7.72204L5.21878 10.9667C5.36021 11.1045 5.42476 11.3031 5.39139 11.4977L4.60563 16.081L8.72075 13.9169C8.90673 13.8191 9.13033 13.8257 9.31021 13.9343C9.31024 13.9344 9.31026 13.9344 9.31029 13.9344Z" fill="#6287A1"/>
</svg>
