<svg width="24" height="24" viewBox="0 0 24 24" fill="none" xmlns="http://www.w3.org/2000/svg">
<g clip-path="url(#clip0)">
<path d="M15.7072 17.8128L14.992 18.1712L15.7072 17.8128ZM15.2 16.8L15.9152 16.4416C15.8487 16.3089 15.7466 16.1973 15.6203 16.1193C15.494 16.0413 15.3484 16 15.2 16V16.8ZM8.8 16.8V16C8.65156 16 8.50604 16.0413 8.37973 16.1193C8.25342 16.1973 8.1513 16.3089 8.0848 16.4416L8.8 16.8ZM22.4 8.80001V16.0448H24V8.80001H22.4ZM16.4224 17.456L15.9152 16.4416L14.4848 17.1584L14.9904 18.1712L16.4224 17.456ZM15.2 16H8.8V17.6H15.2V16ZM8.0848 16.4416L7.5776 17.456L9.008 18.1712L9.5152 17.1584L8.0848 16.4416ZM1.6 16.0448V8.80001H0V16.0448H1.6ZM5.6 4.80001H18.4V3.20001H5.6V4.80001ZM4.7552 19.2C3.91839 19.2 3.11585 18.8676 2.52414 18.2759C1.93242 17.6842 1.6 16.8816 1.6 16.0448H0C0 17.306 0.500993 18.5155 1.39277 19.4072C2.28454 20.299 3.49404 20.8 4.7552 20.8V19.2ZM19.2448 19.2C18.0496 19.2 16.9568 18.5248 16.4224 17.456L14.992 18.1712C15.3868 18.9608 15.9935 19.6249 16.7443 20.0892C17.4952 20.5535 18.3604 20.7996 19.2432 20.8V19.2H19.2448ZM22.4 16.0448C22.4 16.8816 22.0676 17.6842 21.4759 18.2759C20.8841 18.8676 20.0816 19.2 19.2448 19.2V20.8C20.506 20.8 21.7155 20.299 22.6072 19.4072C23.499 18.5155 24 17.306 24 16.0448H22.4ZM7.5776 17.456C7.31551 17.9801 6.91264 18.4209 6.41413 18.7289C5.91563 19.037 5.34119 19.2001 4.7552 19.2V20.8C5.63825 20.7999 6.50384 20.5539 7.25497 20.0896C8.00611 19.6253 8.61312 18.9611 9.008 18.1712L7.5776 17.456ZM24 8.80001C24 7.3148 23.41 5.89042 22.3598 4.84021C21.3096 3.79001 19.8852 3.20001 18.4 3.20001V4.80001C19.4609 4.80001 20.4783 5.22144 21.2284 5.97159C21.9786 6.72173 22.4 7.73915 22.4 8.80001H24ZM1.6 8.80001C1.6 7.73915 2.02143 6.72173 2.77157 5.97159C3.52172 5.22144 4.53913 4.80001 5.6 4.80001V3.20001C4.11479 3.20001 2.69041 3.79001 1.6402 4.84021C0.589998 5.89042 0 7.3148 0 8.80001H1.6ZM4.8 11.2H9.6V9.60001H4.8V11.2ZM6.4 8.00001V12.8H8V8.00001H6.4ZM17.6 9.60001H19.2V8.00001H17.6V9.60001ZM14.4 12.8H16V11.2H14.4V12.8Z" fill="#6287A1"/>
</g>
<defs>
<clipPath id="clip0">
<rect width="24" height="24" fill="white"/>
</clipPath>
</defs>
</svg>
