<svg width="24" height="24" viewBox="0 0 24 24" fill="none" xmlns="http://www.w3.org/2000/svg">
<g clip-path="url(#clip0)">
<path d="M12 0.799996L12.5664 0.233596C12.4921 0.159095 12.4038 0.099986 12.3066 0.0596557C12.2094 0.0193254 12.1052 -0.00143433 12 -0.00143433C11.8948 -0.00143433 11.7906 0.0193254 11.6934 0.0596557C11.5962 0.099986 11.5079 0.159095 11.4336 0.233596L12 0.799996ZM2.4 10.4L1.8336 9.8336L1.6 10.0688V10.4H2.4ZM21.6 10.4H22.4V10.0688L22.1664 9.8336L21.6 10.4ZM22.1664 9.8336L12.5664 0.233596L11.4336 1.3664L21.0336 10.9664L22.1664 9.8336ZM11.4336 0.233596L1.8336 9.8336L2.9664 10.9664L12.5664 1.3664L11.4336 0.233596ZM22.4 21.6V10.4H20.8V21.6H22.4ZM1.6 10.4V21.6H3.2V10.4H1.6ZM4 24H20V22.4H4V24ZM20.8 21.6C20.8 21.8122 20.7157 22.0157 20.5657 22.1657C20.4157 22.3157 20.2122 22.4 20 22.4V24C20.6365 24 21.247 23.7471 21.6971 23.2971C22.1471 22.847 22.4 22.2365 22.4 21.6H20.8ZM1.6 21.6C1.6 22.2365 1.85285 22.847 2.30294 23.2971C2.75303 23.7471 3.36348 24 4 24V22.4C3.78783 22.4 3.58434 22.3157 3.43431 22.1657C3.28428 22.0157 3.2 21.8122 3.2 21.6H1.6Z" fill="#6287A1"/>
</g>
<defs>
<clipPath id="clip0">
<rect width="24" height="24" fill="white"/>
</clipPath>
</defs>
</svg>
