<svg width="24" height="24" viewBox="0 0 24 24" fill="none" xmlns="http://www.w3.org/2000/svg">
<g clip-path="url(#clip0)">
<path d="M7.2 5.6L7.7664 5.0336C7.69209 4.9591 7.60381 4.89999 7.50661 4.85966C7.40942 4.81933 7.30523 4.79857 7.2 4.79857C7.09477 4.79857 6.99058 4.81933 6.89339 4.85966C6.79619 4.89999 6.70791 4.9591 6.6336 5.0336L7.2 5.6ZM2.4 1.6H21.6V0H2.4V1.6ZM22.4 2.4V21.6H24V2.4H22.4ZM21.6 22.4H2.4V24H21.6V22.4ZM1.6 21.6V2.4H0V21.6H1.6ZM2.4 22.4C2.18783 22.4 1.98434 22.3157 1.83431 22.1657C1.68429 22.0157 1.6 21.8122 1.6 21.6H0C0 22.2365 0.252856 22.847 0.702944 23.2971C1.15303 23.7471 1.76348 24 2.4 24V22.4ZM22.4 21.6C22.4 21.8122 22.3157 22.0157 22.1657 22.1657C22.0157 22.3157 21.8122 22.4 21.6 22.4V24C22.2365 24 22.847 23.7471 23.2971 23.2971C23.7471 22.847 24 22.2365 24 21.6H22.4ZM21.6 1.6C21.8122 1.6 22.0157 1.68429 22.1657 1.83431C22.3157 1.98434 22.4 2.18783 22.4 2.4H24C24 1.76348 23.7471 1.15303 23.2971 0.702944C22.847 0.252856 22.2365 0 21.6 0V1.6ZM2.4 0C1.76348 0 1.15303 0.252856 0.702944 0.702944C0.252856 1.15303 0 1.76348 0 2.4H1.6C1.6 2.18783 1.68429 1.98434 1.83431 1.83431C1.98434 1.68429 2.18783 1.6 2.4 1.6V0ZM0.8 17.6H23.2V16H0.8V17.6ZM1.3664 12.5664L7.7664 6.1664L6.6336 5.0336L0.2336 11.4336L1.3664 12.5664ZM6.6336 6.1664L17.8336 17.3664L18.9664 16.2336L7.7664 5.0336L6.6336 6.1664ZM16.8 8C16.5878 8 16.3843 7.91571 16.2343 7.76569C16.0843 7.61566 16 7.41217 16 7.2H14.4C14.4 7.83652 14.6529 8.44697 15.1029 8.89706C15.553 9.34714 16.1635 9.6 16.8 9.6V8ZM17.6 7.2C17.6 7.41217 17.5157 7.61566 17.3657 7.76569C17.2157 7.91571 17.0122 8 16.8 8V9.6C17.4365 9.6 18.047 9.34714 18.4971 8.89706C18.9471 8.44697 19.2 7.83652 19.2 7.2H17.6ZM16.8 6.4C17.0122 6.4 17.2157 6.48429 17.3657 6.63432C17.5157 6.78434 17.6 6.98783 17.6 7.2H19.2C19.2 6.56348 18.9471 5.95303 18.4971 5.50294C18.047 5.05286 17.4365 4.8 16.8 4.8V6.4ZM16.8 4.8C16.1635 4.8 15.553 5.05286 15.1029 5.50294C14.6529 5.95303 14.4 6.56348 14.4 7.2H16C16 6.98783 16.0843 6.78434 16.2343 6.63432C16.3843 6.48429 16.5878 6.4 16.8 6.4V4.8Z" fill="#6287A1"/>
</g>
<defs>
<clipPath id="clip0">
<rect width="24" height="24" fill="white"/>
</clipPath>
</defs>
</svg>
