<svg width="24" height="24" viewBox="0 0 24 24" fill="none" xmlns="http://www.w3.org/2000/svg">
<path d="M4.696 19.6224L5.4672 19.8336C5.50768 19.6851 5.50445 19.5281 5.45791 19.3813C5.41137 19.2346 5.32348 19.1044 5.2048 19.0064L4.696 19.6224ZM3.7216 23.2L2.9504 22.9904C2.91047 23.1376 2.91345 23.2931 2.95898 23.4387C3.00451 23.5843 3.09071 23.7138 3.2074 23.812C3.3241 23.9102 3.46643 23.973 3.61763 23.993C3.76883 24.0129 3.92259 23.9893 4.0608 23.9248L3.7216 23.2ZM7.6176 21.3744L7.9184 20.6336C7.81637 20.5921 7.70686 20.572 7.59673 20.5748C7.4866 20.5775 7.37823 20.603 7.2784 20.6496L7.6176 21.3744ZM10.4 10.4L10.88 9.76L10.4112 9.408L9.9344 9.7488L10.4 10.4ZM13.6 12.8L13.12 13.44L13.6256 13.8192L14.112 13.4144L13.6 12.8ZM12 0C5.4064 0 0 5.1216 0 11.5136H1.6C1.6 6.072 6.2224 1.6 12 1.6V0ZM0 11.5136C0 15.0144 1.6368 18.136 4.1872 20.24L5.2048 19.0064C2.992 17.1824 1.6 14.4992 1.6 11.5136H0ZM3.9232 19.4128L2.9504 22.9904L4.4944 23.4096L5.4672 19.8336L3.9232 19.4128ZM4.0608 23.9248L7.9568 22.0976L7.2784 20.6496L3.3824 22.4752L4.0608 23.9248ZM7.3168 22.1152C8.7568 22.7008 10.3408 23.0272 12 23.0272V21.4272C10.6015 21.4288 9.21595 21.1593 7.92 20.6336L7.3168 22.1152ZM12 23.0272C18.5936 23.0272 24 17.904 24 11.5136H22.4C22.4 16.9536 17.7776 21.4256 12 21.4256V23.0256V23.0272ZM24 11.512C24 5.12 18.5936 0 12 0V1.6C17.7776 1.6 22.4 6.072 22.4 11.5136H24V11.512ZM5.264 15.0496L10.864 11.0496L9.936 9.7488L4.336 13.7488L5.264 15.0512V15.0496ZM9.92 11.04L13.12 13.44L14.08 12.16L10.88 9.76L9.92 11.04ZM14.112 13.4144L18.912 9.4144L17.888 8.1856L13.088 12.1856L14.112 13.4144Z" fill="#6287A1"/>
</svg>
