<svg width="24" height="24" viewBox="0 0 24 24" fill="none" xmlns="http://www.w3.org/2000/svg">
<g clip-path="url(#clip0)">
<path fill-rule="evenodd" clip-rule="evenodd" d="M2.4 4.80001C2.18783 4.80001 1.98434 4.8843 1.83431 5.03433C1.68429 5.18436 1.6 5.38784 1.6 5.60001V18.4C1.6 18.6122 1.68429 18.8157 1.83431 18.9657C1.98434 19.1157 2.18783 19.2 2.4 19.2H21.6C21.8122 19.2 22.0157 19.1157 22.1657 18.9657C22.3157 18.8157 22.4 18.6122 22.4 18.4V5.60001C22.4 5.38784 22.3157 5.18436 22.1657 5.03433C22.0157 4.8843 21.8122 4.80001 21.6 4.80001H2.4ZM2.4 3.20001H21.6C22.2365 3.20001 22.847 3.45287 23.2971 3.90296C23.7471 4.35304 24 4.96349 24 5.60001V18.4C24 19.0365 23.7471 19.647 23.2971 20.0971C22.847 20.5472 22.2365 20.8 21.6 20.8H2.4C1.76348 20.8 1.15303 20.5472 0.702944 20.0971C0.252857 19.647 0 19.0365 0 18.4V5.60001C0 4.96349 0.252856 4.35304 0.702944 3.90296C1.15303 3.45287 1.76348 3.20001 2.4 3.20001ZM4 6.40001H6.4C6.72357 6.40001 7.01528 6.59493 7.1391 6.89387C7.26293 7.19281 7.19448 7.5369 6.96569 7.7657L4.56569 10.1657C4.33689 10.3945 3.99279 10.4629 3.69385 10.3391C3.39491 10.2153 3.2 9.92358 3.2 9.60001V7.20001C3.2 6.75818 3.55817 6.40001 4 6.40001ZM16.8609 6.89387C16.9847 6.59493 17.2764 6.40001 17.6 6.40001H20C20.4418 6.40001 20.8 6.75818 20.8 7.20001V9.60001C20.8 9.92358 20.6051 10.2153 20.3061 10.3391C20.0072 10.4629 19.6631 10.3945 19.4343 10.1657L17.0343 7.7657C16.8055 7.5369 16.7371 7.19281 16.8609 6.89387ZM12 9.60001C11.3635 9.60001 10.753 9.85287 10.3029 10.303C9.85286 10.753 9.6 11.3635 9.6 12C9.6 12.6365 9.85286 13.247 10.3029 13.6971C10.753 14.1472 11.3635 14.4 12 14.4C12.6365 14.4 13.247 14.1472 13.6971 13.6971C14.1471 13.247 14.4 12.6365 14.4 12C14.4 11.3635 14.1471 10.753 13.6971 10.303C13.247 9.85287 12.6365 9.60001 12 9.60001ZM9.17157 9.17159C9.92172 8.42144 10.9391 8.00001 12 8.00001C13.0609 8.00001 14.0783 8.42144 14.8284 9.17159C15.5786 9.92173 16 10.9391 16 12C16 13.0609 15.5786 14.0783 14.8284 14.8284C14.0783 15.5786 13.0609 16 12 16C10.9391 16 9.92172 15.5786 9.17157 14.8284C8.42143 14.0783 8 13.0609 8 12C8 10.9391 8.42143 9.92173 9.17157 9.17159ZM3.69385 13.6609C3.99279 13.5371 4.33689 13.6055 4.56569 13.8343L6.96569 16.2343C7.19448 16.4631 7.26293 16.8072 7.1391 17.1062C7.01528 17.4051 6.72357 17.6 6.4 17.6H4C3.55817 17.6 3.2 17.2418 3.2 16.8V14.4C3.2 14.0764 3.39491 13.7847 3.69385 13.6609ZM20.3061 13.6609C20.6051 13.7847 20.8 14.0764 20.8 14.4V16.8C20.8 17.2418 20.4418 17.6 20 17.6H17.6C17.2764 17.6 16.9847 17.4051 16.8609 17.1062C16.7371 16.8072 16.8055 16.4631 17.0343 16.2343L19.4343 13.8343C19.6631 13.6055 20.0072 13.5371 20.3061 13.6609Z" fill="#6287A1"/>
</g>
<defs>
<clipPath id="clip0">
<rect width="24" height="24" fill="white"/>
</clipPath>
</defs>
</svg>
