<svg width="24" height="23" viewBox="0 0 24 23" fill="none" xmlns="http://www.w3.org/2000/svg">
<g clip-path="url(#clip0)">
<path d="M0.923096 18.4615H23.0769H0.923096ZM0.923096 21.4154H23.0769H0.923096ZM4.6154 5.90766V3.69228H6.83079L4.6154 5.90766ZM17.1692 3.69228H19.3846V5.90766L17.1692 3.69228ZM4.6154 10.3384V12.5538H6.83079L4.6154 10.3384ZM17.1692 12.5538H19.3846V10.3384L17.1692 12.5538ZM12 11.0769C11.2166 11.0769 10.4653 10.7657 9.91133 10.2117C9.35738 9.65778 9.04617 8.90646 9.04617 8.12305C9.04617 7.33964 9.35738 6.58832 9.91133 6.03436C10.4653 5.48041 11.2166 5.1692 12 5.1692C12.7834 5.1692 13.5347 5.48041 14.0887 6.03436C14.6427 6.58832 14.9539 7.33964 14.9539 8.12305C14.9539 8.90646 14.6427 9.65778 14.0887 10.2117C13.5347 10.7657 12.7834 11.0769 12 11.0769ZM3.13848 0.738434H20.8616C21.2533 0.738434 21.6289 0.894038 21.9059 1.17101C22.1829 1.44799 22.3385 1.82365 22.3385 2.21536V14.0307C22.3385 14.4224 22.1829 14.7981 21.9059 15.0751C21.6289 15.3521 21.2533 15.5077 20.8616 15.5077H3.13848C2.74678 15.5077 2.37111 15.3521 2.09414 15.0751C1.81716 14.7981 1.66156 14.4224 1.66156 14.0307V2.21536C1.66156 1.82365 1.81716 1.44799 2.09414 1.17101C2.37111 0.894038 2.74678 0.738434 3.13848 0.738434V0.738434Z" stroke="#6287A1" stroke-width="1.6" stroke-linecap="round" stroke-linejoin="round"/>
</g>
<defs>
<clipPath id="clip0">
<rect width="24" height="22.1538" fill="white"/>
</clipPath>
</defs>
</svg>
