<svg width="24" height="24" viewBox="0 0 24 24" fill="none" xmlns="http://www.w3.org/2000/svg">
<path d="M12 4.80001C11.7878 4.80001 11.5843 4.71573 11.4343 4.5657C11.2843 4.41567 11.2 4.21219 11.2 4.00001C11.2 3.78784 11.2843 3.58436 11.4343 3.43433C11.5843 3.2843 11.7878 3.20001 12 3.20001C12.2122 3.20001 12.4157 3.2843 12.5657 3.43433C12.7157 3.58436 12.8 3.78784 12.8 4.00001C12.8 4.21219 12.7157 4.41567 12.5657 4.5657C12.4157 4.71573 12.2122 4.80001 12 4.80001ZM12 12.8C11.7878 12.8 11.5843 12.7157 11.4343 12.5657C11.2843 12.4157 11.2 12.2122 11.2 12C11.2 11.7878 11.2843 11.5844 11.4343 11.4343C11.5843 11.2843 11.7878 11.2 12 11.2C12.2122 11.2 12.4157 11.2843 12.5657 11.4343C12.7157 11.5844 12.8 11.7878 12.8 12C12.8 12.2122 12.7157 12.4157 12.5657 12.5657C12.4157 12.7157 12.2122 12.8 12 12.8ZM12 20.8C11.7878 20.8 11.5843 20.7157 11.4343 20.5657C11.2843 20.4157 11.2 20.2122 11.2 20C11.2 19.7878 11.2843 19.5844 11.4343 19.4343C11.5843 19.2843 11.7878 19.2 12 19.2C12.2122 19.2 12.4157 19.2843 12.5657 19.4343C12.7157 19.5844 12.8 19.7878 12.8 20C12.8 20.2122 12.7157 20.4157 12.5657 20.5657C12.4157 20.7157 12.2122 20.8 12 20.8Z" stroke="#6287A1" stroke-width="1.6"/>
</svg>
