<svg width="24" height="24" viewBox="0 0 24 24" fill="none" xmlns="http://www.w3.org/2000/svg">
<path d="M7.55199 0.799988H3.99999C3.1513 0.799988 2.33736 1.13713 1.73725 1.73725C1.13713 2.33736 0.799988 3.1513 0.799988 3.99999V7.19999C0.799988 16.0368 7.96319 23.2 16.8 23.2H20C20.8487 23.2 21.6626 22.8628 22.2627 22.2627C22.8628 21.6626 23.2 20.8487 23.2 20V17.7888C23.1998 17.4917 23.117 17.2006 22.9607 16.9479C22.8044 16.6953 22.5809 16.4912 22.3152 16.3584L18.4496 14.4256C18.2446 14.323 18.0199 14.2657 17.7908 14.2576C17.5617 14.2494 17.3335 14.2906 17.1217 14.3783C16.9099 14.466 16.7195 14.5981 16.5632 14.7659C16.4069 14.9336 16.2885 15.1329 16.216 15.3504L15.7408 16.7792C15.5916 17.2268 15.2841 17.6046 14.8761 17.8414C14.468 18.0783 13.9875 18.158 13.5248 18.0656C11.6519 17.6908 9.93181 16.7699 8.58134 15.4192C7.23087 14.0684 6.31042 12.3482 5.93599 10.4752C5.84355 10.0125 5.92325 9.53198 6.16013 9.12393C6.39701 8.71587 6.77476 8.40836 7.22239 8.25919L8.99519 7.66719C9.37721 7.53976 9.69713 7.27295 9.89109 6.92002C10.0851 6.56709 10.1388 6.154 10.0416 5.76319L9.10399 2.01119C9.01731 1.66519 8.81751 1.35808 8.53632 1.13864C8.25513 0.919191 7.90867 0.799997 7.55199 0.799988V0.799988Z" stroke="#6287A1" stroke-width="1.6"/>
</svg>
