<svg width="24" height="24" viewBox="0 0 24 24" fill="none" xmlns="http://www.w3.org/2000/svg">
<g clip-path="url(#clip0)">
<path d="M10.4 0.8V0C10.1878 0 9.98434 0.0842855 9.83432 0.234315C9.68429 0.384344 9.6 0.587827 9.6 0.8H10.4ZM23.2 13.6V14.4C23.4122 14.4 23.6157 14.3157 23.7657 14.1657C23.9157 14.0157 24 13.8122 24 13.6H23.2ZM10.4 13.6H9.6V14.4H10.4V13.6ZM10.4 24C11.7657 24 13.1181 23.731 14.3799 23.2083C15.6417 22.6857 16.7882 21.9196 17.7539 20.9539C18.7196 19.9882 19.4857 18.8417 20.0083 17.5799C20.531 16.3181 20.8 14.9657 20.8 13.6H19.2C19.2 15.9339 18.2729 18.1722 16.6225 19.8225C14.9722 21.4729 12.7339 22.4 10.4 22.4V24ZM0 13.6C0 16.3583 1.09571 19.0035 3.04609 20.9539C4.99647 22.9043 7.64175 24 10.4 24V22.4C8.0661 22.4 5.82778 21.4729 4.17746 19.8225C2.52714 18.1722 1.6 15.9339 1.6 13.6H0ZM1.6 13.6C1.6 11.2661 2.52714 9.02778 4.17746 7.37746C5.82778 5.72714 8.0661 4.8 10.4 4.8V3.2C7.64175 3.2 4.99647 4.29571 3.04609 6.24609C1.09571 8.19647 0 10.8417 0 13.6H1.6ZM10.4 1.6C13.5826 1.6 16.6348 2.86428 18.8853 5.11472C21.1357 7.36516 22.4 10.4174 22.4 13.6H24C24 9.99306 22.5671 6.53384 20.0167 3.98335C17.4662 1.43285 14.0069 0 10.4 0V1.6ZM9.6 0.8V13.6H11.2V0.8H9.6ZM10.4 14.4H23.2V12.8H10.4V14.4Z" fill="#6287A1"/>
</g>
<defs>
<clipPath id="clip0">
<rect width="24" height="24" fill="white"/>
</clipPath>
</defs>
</svg>
