<svg width="24" height="24" viewBox="0 0 24 24" fill="none" xmlns="http://www.w3.org/2000/svg">
<path fill-rule="evenodd" clip-rule="evenodd" d="M12 1.6C10.6343 1.6 9.28188 1.869 8.02009 2.39165C6.75831 2.9143 5.61182 3.68036 4.64609 4.64609C3.68036 5.61182 2.9143 6.75831 2.39165 8.02009C1.869 9.28188 1.6 10.6343 1.6 12C1.6 13.3657 1.869 14.7181 2.39165 15.9799C2.9143 17.2417 3.68036 18.3882 4.64609 19.3539C5.61182 20.3196 6.75831 21.0857 8.02009 21.6083C9.28188 22.131 10.6343 22.4 12 22.4C14.7583 22.4 17.4035 21.3043 19.3539 19.3539C21.3043 17.4035 22.4 14.7583 22.4 12C22.4 9.24175 21.3043 6.59647 19.3539 4.64609C17.4035 2.69571 14.7583 1.6 12 1.6ZM7.4078 0.913446C8.86371 0.310389 10.4241 0 12 0C15.1826 5.96046e-08 18.2348 1.26428 20.4853 3.51472C22.7357 5.76515 24 8.8174 24 12C24 15.1826 22.7357 18.2348 20.4853 20.4853C18.2348 22.7357 15.1826 24 12 24C10.4241 24 8.86371 23.6896 7.4078 23.0866C5.95189 22.4835 4.62902 21.5996 3.51472 20.4853C2.40042 19.371 1.5165 18.0481 0.913446 16.5922C0.310389 15.1363 0 13.5759 0 12C0 10.4241 0.310389 8.86371 0.913446 7.4078C1.5165 5.95189 2.40042 4.62902 3.51472 3.51472C4.62902 2.40042 5.95189 1.5165 7.4078 0.913446ZM12 5.6C12.4418 5.6 12.8 5.95817 12.8 6.4V11.2H17.6C18.0418 11.2 18.4 11.5582 18.4 12C18.4 12.4418 18.0418 12.8 17.6 12.8H12.8V17.6C12.8 18.0418 12.4418 18.4 12 18.4C11.5582 18.4 11.2 18.0418 11.2 17.6V12.8H6.4C5.95817 12.8 5.6 12.4418 5.6 12C5.6 11.5582 5.95817 11.2 6.4 11.2H11.2V6.4C11.2 5.95817 11.5582 5.6 12 5.6Z" fill="#6287A1"/>
</svg>
