<svg width="24" height="24" viewBox="0 0 24 24" fill="none" xmlns="http://www.w3.org/2000/svg">
<path d="M6.16918 0.923096V13.4769M6.16918 13.4769C5.38577 13.4769 4.63445 13.7882 4.08049 14.3421C3.52654 14.8961 3.21533 15.6474 3.21533 16.4308C3.21533 17.2142 3.52654 17.9655 4.08049 18.5195C4.63445 19.0734 5.38577 19.3846 6.16918 19.3846M6.16918 13.4769C6.95259 13.4769 7.70391 13.7882 8.25786 14.3421C8.81182 14.8961 9.12303 15.6474 9.12303 16.4308C9.12303 17.2142 8.81182 17.9655 8.25786 18.5195C7.70391 19.0734 6.95259 19.3846 6.16918 19.3846M6.16918 19.3846V23.0769M17.9846 0.923096V4.6154M17.9846 4.6154C17.2012 4.6154 16.4498 4.92661 15.8959 5.48056C15.3419 6.03452 15.0307 6.78584 15.0307 7.56925C15.0307 8.35266 15.3419 9.10398 15.8959 9.65793C16.4498 10.2119 17.2012 10.5231 17.9846 10.5231M17.9846 4.6154C18.768 4.6154 19.5193 4.92661 20.0732 5.48056C20.6272 6.03452 20.9384 6.78584 20.9384 7.56925C20.9384 8.35266 20.6272 9.10398 20.0732 9.65793C19.5193 10.2119 18.768 10.5231 17.9846 10.5231M17.9846 10.5231V23.0769" stroke="#6287A1" stroke-width="1.6" stroke-linecap="round" stroke-linejoin="round"/>
</svg>
