<svg width="42" height="42" viewBox="0 0 42 42" fill="none" xmlns="http://www.w3.org/2000/svg">
<path fill-rule="evenodd" clip-rule="evenodd" d="M8.4 7.35C8.12152 7.35 7.85445 7.46062 7.65754 7.65754C7.46062 7.85445 7.35 8.12152 7.35 8.4V16.8C7.35 17.0785 7.46062 17.3455 7.65754 17.5425C7.85445 17.7394 8.12152 17.85 8.4 17.85H16.8C17.0785 17.85 17.3455 17.7394 17.5425 17.5425C17.7394 17.3455 17.85 17.0785 17.85 16.8V8.4C17.85 8.12152 17.7394 7.85445 17.5425 7.65754C17.3455 7.46062 17.0785 7.35 16.8 7.35H8.4ZM6.17261 6.17261C6.76335 5.58187 7.56457 5.25 8.4 5.25H16.8C17.6354 5.25 18.4366 5.58187 19.0274 6.17261C19.6181 6.76335 19.95 7.56457 19.95 8.4V16.8C19.95 17.6354 19.6181 18.4366 19.0274 19.0274C18.4366 19.6181 17.6354 19.95 16.8 19.95H8.4C7.56457 19.95 6.76335 19.6181 6.17261 19.0274C5.58187 18.4366 5.25 17.6354 5.25 16.8V8.4C5.25 7.56457 5.58187 6.76335 6.17261 6.17261ZM25.2 7.35C24.9215 7.35 24.6545 7.46062 24.4575 7.65754C24.2606 7.85445 24.15 8.12152 24.15 8.4V16.8C24.15 17.0785 24.2606 17.3455 24.4575 17.5425C24.6545 17.7394 24.9215 17.85 25.2 17.85H33.6C33.8785 17.85 34.1455 17.7394 34.3425 17.5425C34.5394 17.3456 34.65 17.0785 34.65 16.8V8.4C34.65 8.12152 34.5394 7.85445 34.3425 7.65754C34.1455 7.46062 33.8785 7.35 33.6 7.35H25.2ZM22.9726 6.17261C23.5634 5.58187 24.3646 5.25 25.2 5.25H33.6C34.4354 5.25 35.2366 5.58187 35.8274 6.17261C36.4181 6.76335 36.75 7.56457 36.75 8.4V16.8C36.75 17.6354 36.4181 18.4366 35.8274 19.0274C35.2366 19.6181 34.4354 19.95 33.6 19.95H25.2C24.3646 19.95 23.5634 19.6181 22.9726 19.0274C22.3819 18.4366 22.05 17.6354 22.05 16.8V8.4C22.05 7.56457 22.3819 6.76335 22.9726 6.17261ZM10.5 12.6C10.5 12.0201 10.9701 11.55 11.55 11.55H13.65C14.2299 11.55 14.7 12.0201 14.7 12.6C14.7 13.1799 14.2299 13.65 13.65 13.65H11.55C10.9701 13.65 10.5 13.1799 10.5 12.6ZM27.3 12.6C27.3 12.0201 27.7701 11.55 28.35 11.55H30.45C31.0299 11.55 31.5 12.0201 31.5 12.6C31.5 13.1799 31.0299 13.65 30.45 13.65H28.35C27.7701 13.65 27.3 13.1799 27.3 12.6ZM8.4 24.15C8.12152 24.15 7.85445 24.2606 7.65754 24.4575C7.46062 24.6545 7.35 24.9215 7.35 25.2V33.6C7.35 33.8785 7.46062 34.1455 7.65754 34.3425C7.85445 34.5394 8.12152 34.65 8.4 34.65H16.8C17.0785 34.65 17.3456 34.5394 17.5425 34.3425C17.7394 34.1455 17.85 33.8785 17.85 33.6V25.2C17.85 24.9215 17.7394 24.6545 17.5425 24.4575C17.3455 24.2606 17.0785 24.15 16.8 24.15H8.4ZM6.17261 22.9726C6.76335 22.3819 7.56457 22.05 8.4 22.05H16.8C17.6354 22.05 18.4366 22.3819 19.0274 22.9726C19.6181 23.5634 19.95 24.3646 19.95 25.2V33.6C19.95 34.4354 19.6181 35.2366 19.0274 35.8274C18.4366 36.4181 17.6354 36.75 16.8 36.75H8.4C7.56457 36.75 6.76335 36.4181 6.17261 35.8274C5.58187 35.2366 5.25 34.4354 5.25 33.6V25.2C5.25 24.3646 5.58187 23.5634 6.17261 22.9726ZM22.05 23.1C22.05 22.5201 22.5201 22.05 23.1 22.05H30.45C31.0299 22.05 31.5 22.5201 31.5 23.1C31.5 23.6799 31.0299 24.15 30.45 24.15H24.15V30.45C24.15 31.0299 23.6799 31.5 23.1 31.5C22.5201 31.5 22.05 31.0299 22.05 30.45V23.1ZM32.2875 23.1C32.2875 22.5201 32.7576 22.05 33.3375 22.05H35.4375C36.0174 22.05 36.4875 22.5201 36.4875 23.1C36.4875 23.6799 36.0174 24.15 35.4375 24.15H33.3375C32.7576 24.15 32.2875 23.6799 32.2875 23.1ZM10.5 29.4C10.5 28.8201 10.9701 28.35 11.55 28.35H13.65C14.2299 28.35 14.7 28.8201 14.7 29.4C14.7 29.9799 14.2299 30.45 13.65 30.45H11.55C10.9701 30.45 10.5 29.9799 10.5 29.4ZM27.3 29.4C27.3 28.8201 27.7701 28.35 28.35 28.35H35.7C36.2799 28.35 36.75 28.8201 36.75 29.4V35.4375C36.75 36.0174 36.2799 36.4875 35.7 36.4875C35.1201 36.4875 34.65 36.0174 34.65 35.4375V30.45H28.35C27.7701 30.45 27.3 29.9799 27.3 29.4ZM22.3125 35.7C22.3125 35.1201 22.7826 34.65 23.3625 34.65H30.45C31.0299 34.65 31.5 35.1201 31.5 35.7C31.5 36.2799 31.0299 36.75 30.45 36.75H23.3625C22.7826 36.75 22.3125 36.2799 22.3125 35.7Z" fill="#6287A1"/>
</svg>
