<svg width="24" height="24" viewBox="0 0 24 24" fill="none" xmlns="http://www.w3.org/2000/svg">
<path fill-rule="evenodd" clip-rule="evenodd" d="M20.7997 1.00147C21.0884 1.00123 21.3744 1.05788 21.6413 1.16819C21.9083 1.27854 22.1509 1.44044 22.3553 1.64462C22.5597 1.8488 22.7218 2.09126 22.8324 2.35815C22.9431 2.62503 23 2.9111 23 3.2V16.3897C23 16.9732 22.7682 17.5328 22.3556 17.9454C21.9431 18.3579 21.3835 18.5897 20.8 18.5897H15.3257L12.61 22.6604C12.474 22.8643 12.2451 22.9868 12 22.9868C11.7549 22.9868 11.526 22.8643 11.39 22.6604L8.67532 18.5912H3.2C2.61652 18.5912 2.05694 18.3594 1.64437 17.9468C1.23179 17.5343 1 16.9747 1 16.3912V3.20147C1 2.61799 1.23179 2.05841 1.64437 1.64583C2.05695 1.23325 2.61652 1.00147 3.2 1.00147H20.7997ZM9.01942 17.1245H3.2C3.00551 17.1245 2.81898 17.0473 2.68146 16.9097C2.54393 16.7722 2.46667 16.5857 2.46667 16.3912V3.20147C2.46667 3.00697 2.54393 2.82045 2.68146 2.68292C2.81898 2.54539 3.00551 2.46813 3.2 2.46813H20.8C20.8962 2.46804 20.9922 2.48689 21.081 2.52363C21.1699 2.56037 21.2507 2.61426 21.3187 2.68223C21.3868 2.7502 21.4407 2.83092 21.4776 2.91976C21.5144 3.0086 21.5333 3.10383 21.5333 3.2V16.3897C21.5333 16.5842 21.4561 16.7708 21.3185 16.9083C21.181 17.0458 20.9945 17.1231 20.8 17.1231H14.9333C14.6882 17.1231 14.4593 17.2455 14.3233 17.4494L12 20.932L9.67671 17.4494C9.5291 17.2282 9.2766 17.1079 9.01942 17.1245Z" fill="#6287A1"/>
<path d="M10.8606 12.2404V11.7944C10.8606 11.2834 10.9535 10.8583 11.1394 10.5192C11.3252 10.18 11.6504 9.82927 12.115 9.4669C12.6678 9.0302 13.0232 8.69106 13.1812 8.44948C13.3438 8.2079 13.4251 7.91986 13.4251 7.58536C13.4251 7.19512 13.295 6.89547 13.0348 6.68641C12.7747 6.47735 12.4007 6.37282 11.9129 6.37282C11.4715 6.37282 11.0627 6.43554 10.6864 6.56097C10.3101 6.68641 9.94309 6.8374 9.58537 7.01394L9 5.78746C9.94309 5.26248 10.9535 5 12.0314 5C12.9419 5 13.6643 5.223 14.1986 5.66899C14.7329 6.11498 15 6.73055 15 7.51568C15 7.86411 14.9489 8.17538 14.8467 8.44948C14.7445 8.71893 14.5889 8.97677 14.3798 9.223C14.1754 9.46922 13.82 9.78978 13.3136 10.1847C12.8815 10.5238 12.5912 10.8049 12.4425 11.0279C12.2985 11.2509 12.2265 11.5505 12.2265 11.9268V12.2404H10.8606ZM10.5749 14.4634C10.5749 13.7619 10.9164 13.4111 11.5993 13.4111C11.9338 13.4111 12.1893 13.5041 12.3659 13.6899C12.5424 13.8711 12.6307 14.1289 12.6307 14.4634C12.6307 14.7933 12.5401 15.0557 12.3589 15.2509C12.1823 15.4413 11.9292 15.5366 11.5993 15.5366C11.2695 15.5366 11.0163 15.4437 10.8397 15.2578C10.6632 15.0674 10.5749 14.8026 10.5749 14.4634Z" fill="#6287A1"/>
</svg>
