<svg width="24" height="24" viewBox="0 0 24 24" fill="none" xmlns="http://www.w3.org/2000/svg">
<path d="M1.73828 12C1.73832 9.85087 2.40813 7.75515 3.65454 6.00435C4.90096 4.25355 6.66201 2.9347 8.69278 2.23125C10.7235 1.52779 12.9231 1.47469 14.9854 2.07934C17.0477 2.68399 18.8704 3.91632 20.1998 5.60494M22.4152 12C22.4152 14.1492 21.7454 16.2449 20.4989 17.9957C19.2525 19.7465 17.4915 21.0653 15.4607 21.7688C13.4299 22.4722 11.2304 22.5253 9.16809 21.9207C7.10575 21.316 5.28311 20.0837 3.95367 18.3951M8.38444 17.9077H3.2152V23.0769M20.9383 0.923096V6.09233H15.7691" stroke="#6287A1" stroke-width="1.6" stroke-linecap="round" stroke-linejoin="round"/>
</svg>
