<svg width="24" height="24" viewBox="0 0 24 24" fill="none" xmlns="http://www.w3.org/2000/svg">
<path fill-rule="evenodd" clip-rule="evenodd" d="M5 15C5.44183 15 5.8 15.3582 5.8 15.8L5.8 22.2C5.8 22.6418 5.44183 23 5 23C4.55817 23 4.2 22.6418 4.2 22.2L4.2 15.8C4.2 15.3582 4.55817 15 5 15Z" fill="#6287A1"/>
<path fill-rule="evenodd" clip-rule="evenodd" d="M19 15C19.4418 15 19.8 15.3582 19.8 15.8V22.2C19.8 22.6418 19.4418 23 19 23C18.5582 23 18.2 22.6418 18.2 22.2V15.8C18.2 15.3582 18.5582 15 19 15Z" fill="#6287A1"/>
<path fill-rule="evenodd" clip-rule="evenodd" d="M19 1C19.4418 1 19.8 1.35817 19.8 1.8V8.2C19.8 8.64183 19.4418 9 19 9C18.5582 9 18.2 8.64183 18.2 8.2V1.8C18.2 1.35817 18.5582 1 19 1Z" fill="#6287A1"/>
<path fill-rule="evenodd" clip-rule="evenodd" d="M5 1C5.44183 1 5.8 1.35817 5.8 1.8L5.8 8.2C5.8 8.64183 5.44183 9 5 9C4.55817 9 4.2 8.64183 4.2 8.2L4.2 1.8C4.2 1.35817 4.55817 1 5 1Z" fill="#6287A1"/>
<path fill-rule="evenodd" clip-rule="evenodd" d="M5 14.4C6.32548 14.4 7.4 13.3255 7.4 12C7.4 10.6745 6.32548 9.6 5 9.6C3.67452 9.6 2.6 10.6745 2.6 12C2.6 13.3255 3.67452 14.4 5 14.4ZM5 16C7.20914 16 9 14.2091 9 12C9 9.79086 7.20914 8 5 8C2.79086 8 1 9.79086 1 12C1 14.2091 2.79086 16 5 16Z" fill="#6287A1"/>
<path fill-rule="evenodd" clip-rule="evenodd" d="M19 14.4C20.3255 14.4 21.4 13.3255 21.4 12C21.4 10.6745 20.3255 9.6 19 9.6C17.6745 9.6 16.6 10.6745 16.6 12C16.6 13.3255 17.6745 14.4 19 14.4ZM19 16C21.2091 16 23 14.2091 23 12C23 9.79086 21.2091 8 19 8C16.7909 8 15 9.79086 15 12C15 14.2091 16.7909 16 19 16Z" fill="#6287A1"/>
</svg>
