<svg width="24" height="24" viewBox="0 0 24 24" fill="none" xmlns="http://www.w3.org/2000/svg">
<g clip-path="url(#clip0)">
<path fill-rule="evenodd" clip-rule="evenodd" d="M4 1.6C3.36348 1.6 2.75303 1.85286 2.30294 2.30294C1.85286 2.75303 1.6 3.36348 1.6 4V8C1.6 8.44183 1.24183 8.8 0.8 8.8C0.358172 8.8 0 8.44183 0 8V4C0 2.93913 0.421427 1.92172 1.17157 1.17157C1.92172 0.421427 2.93913 0 4 0H8C8.44183 0 8.8 0.358172 8.8 0.8C8.8 1.24183 8.44183 1.6 8 1.6H4ZM15.2 0.8C15.2 0.358172 15.5582 0 16 0H20C21.0609 0 22.0783 0.421427 22.8284 1.17157C23.5786 1.92172 24 2.93913 24 4V8C24 8.44183 23.6418 8.8 23.2 8.8C22.7582 8.8 22.4 8.44183 22.4 8V4C22.4 3.36348 22.1471 2.75303 21.6971 2.30294C21.247 1.85286 20.6365 1.6 20 1.6H16C15.5582 1.6 15.2 1.24183 15.2 0.8ZM2.4 12C2.4 11.5582 2.75817 11.2 3.2 11.2H20.8C21.2418 11.2 21.6 11.5582 21.6 12C21.6 12.4418 21.2418 12.8 20.8 12.8H3.2C2.75817 12.8 2.4 12.4418 2.4 12ZM0.8 15.2C1.24183 15.2 1.6 15.5582 1.6 16V20C1.6 20.6365 1.85286 21.247 2.30294 21.6971C2.75303 22.1471 3.36348 22.4 4 22.4H8C8.44183 22.4 8.8 22.7582 8.8 23.2C8.8 23.6418 8.44183 24 8 24H4C2.93913 24 1.92172 23.5786 1.17157 22.8284C0.421427 22.0783 0 21.0609 0 20V16C0 15.5582 0.358172 15.2 0.8 15.2ZM23.2 15.2C23.6418 15.2 24 15.5582 24 16V20C24 21.0609 23.5786 22.0783 22.8284 22.8284C22.0783 23.5786 21.0609 24 20 24H16C15.5582 24 15.2 23.6418 15.2 23.2C15.2 22.7582 15.5582 22.4 16 22.4H20C20.6365 22.4 21.247 22.1471 21.6971 21.6971C22.1471 21.247 22.4 20.6365 22.4 20V16C22.4 15.5582 22.7582 15.2 23.2 15.2Z" fill="#6287A1"/>
</g>
<defs>
<clipPath id="clip0">
<rect width="24" height="24" fill="white"/>
</clipPath>
</defs>
</svg>
