<svg width="24" height="24" viewBox="0 0 24 24" fill="none" xmlns="http://www.w3.org/2000/svg">
<g clip-path="url(#clip0)">
<path fill-rule="evenodd" clip-rule="evenodd" d="M10.5025 1.61578C9.33551 1.61578 8.17991 1.84564 7.10172 2.29224C6.02353 2.73884 5.04386 3.39344 4.21865 4.21865C3.39344 5.04386 2.73884 6.02353 2.29224 7.10172C1.84564 8.17991 1.61578 9.33551 1.61578 10.5025C1.61578 11.6696 1.84564 12.8252 2.29224 13.9034C2.73884 14.9815 3.39344 15.9612 4.21865 16.7864C5.04386 17.6116 6.02353 18.2662 7.10172 18.7128C8.17991 19.1594 9.33551 19.3893 10.5025 19.3893C12.8595 19.3893 15.1198 18.453 16.7864 16.7864C18.453 15.1198 19.3893 12.8595 19.3893 10.5025C19.3893 8.14562 18.453 5.88524 16.7864 4.21865C15.1198 2.55206 12.8595 1.61578 10.5025 1.61578ZM6.48339 0.799458C7.75762 0.271656 9.12333 0 10.5025 0C13.288 6.01923e-08 15.9593 1.10651 17.929 3.07612C19.8986 5.04573 21.0051 7.71709 21.0051 10.5025C21.0051 13.0174 20.1031 15.4393 18.4782 17.3357L24 22.8575L22.8575 24L17.3357 18.4782C15.4393 20.1031 13.0174 21.0051 10.5025 21.0051C9.12333 21.0051 7.75762 20.7334 6.48339 20.2056C5.20916 19.6778 4.05137 18.9042 3.07612 17.929C2.10087 16.9537 1.32726 15.7959 0.799458 14.5217C0.271656 13.2475 0 11.8818 0 10.5025C0 9.12333 0.271656 7.75762 0.799458 6.48339C1.32726 5.20916 2.10087 4.05137 3.07612 3.07612C4.05137 2.10087 5.20916 1.32726 6.48339 0.799458Z" fill="#6287A1"/>
</g>
<defs>
<clipPath id="clip0">
<rect width="24" height="24" fill="white"/>
</clipPath>
</defs>
</svg>
