<svg width="24" height="24" viewBox="0 0 24 24" fill="none" xmlns="http://www.w3.org/2000/svg">
<g clip-path="url(#clip0)">
<path fill-rule="evenodd" clip-rule="evenodd" d="M20 1.59841C19.3635 1.59841 18.753 1.85127 18.3029 2.30136C17.8529 2.75144 17.6 3.36189 17.6 3.99841C17.6 4.63493 17.8529 5.24538 18.3029 5.69547C18.753 6.14556 19.3635 6.39841 20 6.39841C20.6365 6.39841 21.247 6.14556 21.6971 5.69547C22.1471 5.24538 22.4 4.63493 22.4 3.99841C22.4 3.36189 22.1471 2.75144 21.6971 2.30136C21.247 1.85127 20.6365 1.59841 20 1.59841ZM17.1716 1.16999C17.9217 0.41984 18.9391 -0.00158691 20 -0.00158691C21.0609 -0.00158691 22.0783 0.41984 22.8284 1.16999C23.5786 1.92013 24 2.93755 24 3.99841C24 5.05928 23.5786 6.07669 22.8284 6.82684C22.0783 7.57699 21.0609 7.99841 20 7.99841C19.243 7.99841 18.5081 7.78382 17.8767 7.38833L14.5831 11.9927L17.8703 16.6013C18.5032 16.2032 19.2404 15.9872 20 15.9872C21.0609 15.9872 22.0783 16.4086 22.8284 17.1588C23.5786 17.9089 24 18.9263 24 19.9872C24 21.0481 23.5786 22.0655 22.8284 22.8156C22.0783 23.5658 21.0609 23.9872 20 23.9872C18.9391 23.9872 17.9217 23.5658 17.1716 22.8156C16.4214 22.0655 16 21.0481 16 19.9872C16 19.1724 16.2486 18.3833 16.7038 17.7212L13.1937 12.8H7.91756C7.76086 13.5597 7.38518 14.2637 6.82843 14.8204C6.07828 15.5706 5.06087 15.992 4 15.992C2.93913 15.992 1.92172 15.5706 1.17157 14.8204C0.421427 14.0703 0 13.0529 0 11.992C0 10.9311 0.421427 9.91373 1.17157 9.16359C1.92172 8.41344 2.93913 7.99201 4 7.99201C5.06087 7.99201 6.07828 8.41344 6.82843 9.16359C7.38909 9.72425 7.76612 10.4342 7.92083 11.2H13.1829L16.7085 6.2713C16.2503 5.60778 16 4.816 16 3.99841C16 2.93755 16.4214 1.92013 17.1716 1.16999ZM6.4 11.992C6.4 11.3555 6.14714 10.745 5.69706 10.295C5.24697 9.84487 4.63652 9.59201 4 9.59201C3.36348 9.59201 2.75303 9.84487 2.30294 10.295C1.85286 10.745 1.6 11.3555 1.6 11.992C1.6 12.6285 1.85286 13.239 2.30294 13.6891C2.75303 14.1392 3.36348 14.392 4 14.392C4.63652 14.392 5.24697 14.1392 5.69706 13.6891C6.14714 13.239 6.4 12.6285 6.4 11.992ZM20 17.5872C19.3635 17.5872 18.753 17.8401 18.3029 18.2902C17.8529 18.7402 17.6 19.3507 17.6 19.9872C17.6 20.6237 17.8529 21.2342 18.3029 21.6843C18.753 22.1344 19.3635 22.3872 20 22.3872C20.6365 22.3872 21.247 22.1344 21.6971 21.6843C22.1471 21.2342 22.4 20.6237 22.4 19.9872C22.4 19.3507 22.1471 18.7402 21.6971 18.2902C21.247 17.8401 20.6365 17.5872 20 17.5872Z" fill="#6287A1"/>
</g>
<defs>
<clipPath id="clip0">
<rect width="24" height="24" fill="white"/>
</clipPath>
</defs>
</svg>
