<svg width="22" height="24" viewBox="0 0 22 24" fill="none" xmlns="http://www.w3.org/2000/svg">
<path fill-rule="evenodd" clip-rule="evenodd" d="M1.30292 0.702944C1.75301 0.252856 2.36346 0 2.99998 0H19C19.6365 0 20.2469 0.252857 20.697 0.702944C21.1471 1.15303 21.4 1.76348 21.4 2.4V21.6C21.4 22.2365 21.1471 22.847 20.697 23.2971C20.2469 23.7471 19.6365 24 19 24H2.99998C2.36346 24 1.75301 23.7471 1.30292 23.2971C0.852832 22.847 0.599976 22.2365 0.599976 21.6V2.4C0.599976 1.76348 0.852832 1.15303 1.30292 0.702944ZM2.99998 1.6C2.7878 1.6 2.58432 1.68429 2.43429 1.83431C2.28426 1.98434 2.19998 2.18783 2.19998 2.4V21.6C2.19998 21.8122 2.28426 22.0157 2.43429 22.1657C2.58432 22.3157 2.7878 22.4 2.99998 22.4H19C19.2122 22.4 19.4156 22.3157 19.5657 22.1657C19.7157 22.0157 19.8 21.8122 19.8 21.6V2.4C19.8 2.18783 19.7157 1.98434 19.5657 1.83431C19.4156 1.68429 19.2121 1.6 19 1.6H2.99998ZM6.19998 2.4C6.6418 2.4 6.99998 2.75817 6.99998 3.2V7.2C6.99998 8.26087 7.4214 9.27828 8.17155 10.0284C8.92169 10.7786 9.93911 11.2 11 11.2C12.0608 11.2 13.0783 10.7786 13.8284 10.0284C14.5785 9.27828 15 8.26087 15 7.2V3.2C15 2.75817 15.3581 2.4 15.8 2.4C16.2418 2.4 16.6 2.75817 16.6 3.2V7.2C16.6 8.68521 16.01 10.1096 14.9598 11.1598C13.9096 12.21 12.4852 12.8 11 12.8C9.51476 12.8 8.09038 12.21 7.04018 11.1598C5.98997 10.1096 5.39998 8.68521 5.39998 7.2V3.2C5.39998 2.75817 5.75815 2.4 6.19998 2.4Z" fill="#6287A1"/>
</svg>
