<svg width="24" height="24" viewBox="0 0 24 24" fill="none" xmlns="http://www.w3.org/2000/svg">
<path d="M12 2.39999V0.799988M12 23.184V21.5872M21.6 11.992H23.2M2.39999 11.992H0.799988M3.99999 3.99839L2.39999 2.39839M21.6 2.39839L20 3.99839M3.99999 19.9872L2.39999 21.5872M21.6 21.5872L20 19.9872M16.8 11.992C16.7998 12.6221 16.6755 13.246 16.4341 13.8281C16.1928 14.4102 15.8392 14.9391 15.3934 15.3845C14.9477 15.8299 14.4186 16.1832 13.8364 16.4241C13.2541 16.6651 12.6301 16.789 12 16.7888C11.051 16.7885 10.1233 16.5067 9.33441 15.9792C8.54549 15.4517 7.93072 14.7021 7.56783 13.8252C7.20495 12.9483 7.11024 11.9834 7.2957 11.0527C7.48116 10.122 7.93845 9.26712 8.60974 8.59628C9.28103 7.92543 10.1362 7.46871 11.067 7.28388C11.9979 7.09904 12.9627 7.19439 13.8393 7.55786C14.716 7.92133 15.4652 8.5366 15.9922 9.32587C16.5192 10.1151 16.8003 11.043 16.8 11.992Z" stroke="#6287A1" stroke-width="1.6" stroke-linecap="round" stroke-linejoin="round"/>
</svg>
