<svg width="24" height="24" viewBox="0 0 24 24" fill="none" xmlns="http://www.w3.org/2000/svg">
<path d="M10.5 17.25C10.8675 17.4105 11.598 18 12 18C12.402 18 13.1325 17.4105 13.5 17.25H10.5ZM7.49999 9.75L9.74999 12L7.49999 9.75ZM16.5 9.75L14.25 12L16.5 9.75ZM12 0.75C6.55949 0.75 3.54299 3.6915 2.99999 7.5C2.45399 11.0175 3.20849 14.3355 5.24999 17.25C6.23249 18.687 7.52249 20.079 8.99999 21C10.944 22.1655 13.056 22.1655 15 21C16.4775 20.079 17.7675 18.687 18.75 17.25C20.784 14.331 21.537 11.016 21 7.5C20.457 3.69 17.4405 0.75 12 0.75Z" stroke="#6287A1" stroke-width="1.5" stroke-linecap="square" stroke-linejoin="round"/>
</svg>
