<svg width="24" height="24" viewBox="0 0 24 24" fill="none" xmlns="http://www.w3.org/2000/svg">
<g clip-path="url(#clip0)">
<path fill-rule="evenodd" clip-rule="evenodd" d="M13.533 1.90167C12.8024 1.5988 11.9985 1.51935 11.2229 1.67337C10.4472 1.82739 9.73462 2.20796 9.17525 2.76696C8.61588 3.32596 8.23483 4.03828 8.08029 4.81384C7.92575 5.5894 8.00467 6.39337 8.30705 7.12409C8.60944 7.8548 9.12171 8.47944 9.7791 8.91901C10.4365 9.35857 11.2095 9.59333 12.0003 9.5936C12.5253 9.59377 13.0453 9.49052 13.5305 9.28975C14.0157 9.08897 14.4565 8.7946 14.828 8.42344C15.1994 8.05227 15.494 7.61159 15.6951 7.12655C15.8962 6.64151 15.9998 6.12161 16 5.59653C16.0003 4.80572 15.766 4.03259 15.3269 3.37491C14.8878 2.71723 14.2635 2.20454 13.533 1.90167ZM10.9112 0.104006C11.9973 -0.111647 13.1229 -0.000405073 14.1457 0.423666C15.1686 0.847736 16.0427 1.56559 16.6575 2.48645C17.2724 3.4073 17.6004 4.48981 17.6 5.59706C17.5998 6.33226 17.4547 7.0602 17.1731 7.73934C16.8916 8.41847 16.479 9.0355 15.9589 9.55518C15.4389 10.0749 14.8216 10.487 14.1423 10.7682C13.463 11.0493 12.7349 11.1938 11.9997 11.1936C10.8925 11.1932 9.81019 10.8645 8.88974 10.2491C7.9693 9.63359 7.25203 8.759 6.82864 7.73589C6.40525 6.71277 6.29476 5.58708 6.51114 4.50117C6.72751 3.41526 7.26104 2.4179 8.04425 1.63521C8.82747 0.852523 9.82518 0.319659 10.9112 0.104006ZM8.8 15.9904C7.73913 15.9904 6.72172 16.4118 5.97157 17.162C5.22143 17.9121 4.8 18.9295 4.8 19.9904V22.384H19.2V19.9904C19.2 18.9295 18.7786 17.9121 18.0284 17.162C17.2783 16.4118 16.2609 15.9904 15.2 15.9904H8.8ZM20.8 19.9904C20.8 18.5052 20.21 17.0808 19.1598 16.0306C18.1096 14.9804 16.6852 14.3904 15.2 14.3904H8.8C7.31479 14.3904 5.89041 14.9804 4.8402 16.0306C3.79 17.0808 3.2 18.5052 3.2 19.9904V23.184C3.2 23.6258 3.55817 23.984 4 23.984H19.949C19.9658 23.9851 19.9829 23.9856 20 23.9856C20.4418 23.9856 20.8 23.6274 20.8 23.1856V19.9904Z" fill="#6287A1"/>
</g>
<defs>
<clipPath id="clip0">
<rect width="24" height="24" fill="white"/>
</clipPath>
</defs>
</svg>
