<svg width="24" height="24" viewBox="0 0 24 24" fill="none" xmlns="http://www.w3.org/2000/svg">
<path d="M0.8 5.59999V20C0.8 20.4243 0.968571 20.8313 1.26863 21.1314C1.56869 21.4314 1.97565 21.6 2.4 21.6H21.6C22.0243 21.6 22.4313 21.4314 22.7314 21.1314C23.0314 20.8313 23.2 20.4243 23.2 20V7.19999C23.2 6.77565 23.0314 6.36868 22.7314 6.06862C22.4313 5.76856 22.0243 5.59999 21.6 5.59999H4.8M0.8 5.59999H4.8M0.8 5.59999V3.99999C0.8 3.57565 0.968571 3.16868 1.26863 2.86862C1.56869 2.56856 1.97565 2.39999 2.4 2.39999H15.2C15.6243 2.39999 16.0313 2.56856 16.3314 2.86862C16.6314 3.16868 16.8 3.57565 16.8 3.99999V5.59999H4.8M14.4 15.2H19.2" stroke="#6287A1" stroke-width="1.6" stroke-linecap="round"/>
</svg>
