<svg width="24" height="24" viewBox="0 0 24 24" fill="none" xmlns="http://www.w3.org/2000/svg">
<path fill-rule="evenodd" clip-rule="evenodd" d="M21.6 0.199997C22.0418 0.199997 22.4 0.558169 22.4 0.999997V19.2C22.4 19.6418 22.0418 20 21.6 20C21.1582 20 20.8 19.6418 20.8 19.2V0.999997C20.8 0.558169 21.1582 0.199997 21.6 0.199997ZM15.2 4C15.6418 4 16 4.35817 16 4.8V19.2C16 19.6418 15.6418 20 15.2 20C14.7582 20 14.4 19.6418 14.4 19.2V4.8C14.4 4.35817 14.7582 4 15.2 4ZM8.8 8.8C9.24183 8.8 9.6 9.15817 9.6 9.6V19.2C9.6 19.6418 9.24183 20 8.8 20C8.35817 20 8 19.6418 8 19.2V9.6C8 9.15817 8.35817 8.8 8.8 8.8ZM2.4 13.6C2.84183 13.6 3.2 13.9582 3.2 14.4V19.2C3.2 19.6418 2.84183 20 2.4 20C1.95817 20 1.6 19.6418 1.6 19.2V14.4C1.6 13.9582 1.95817 13.6 2.4 13.6Z" fill="#6287A1"/>
<path d="M0 22.5C0 21.6716 0.671573 21 1.5 21H22.5C23.3284 21 24 21.6716 24 22.5C24 23.3284 23.3284 24 22.5 24H1.5C0.671573 24 0 23.3284 0 22.5Z" fill="#6287A1"/>
</svg>
