<svg width="24" height="24" viewBox="0 0 24 24" fill="none" xmlns="http://www.w3.org/2000/svg">
<g clip-path="url(#clip0)">
<path fill-rule="evenodd" clip-rule="evenodd" d="M0.570088 0.0337055C0.993282 -0.0932528 1.43927 0.146894 1.56623 0.570088L2.35519 3.19997H20C21.0608 3.19997 22.0782 3.62139 22.8284 4.37154C23.5785 5.12169 24 6.1391 24 7.19997V17.6H5.00474L0.0337055 1.02984C-0.0932528 0.606651 0.146894 0.160664 0.570088 0.0337055ZM8.79997 20.8C8.5878 20.8 8.38431 20.8843 8.23428 21.0343C8.08425 21.1843 7.99997 21.3878 7.99997 21.6C7.99997 21.8121 8.08425 22.0156 8.23428 22.1657C8.38431 22.3157 8.58779 22.4 8.79997 22.4C9.01214 22.4 9.21562 22.3157 9.36565 22.1657C9.51568 22.0156 9.59997 21.8121 9.59997 21.6C9.59997 21.3878 9.51568 21.1843 9.36565 21.0343C9.21562 20.8843 9.01214 20.8 8.79997 20.8ZM7.10291 19.9029C7.553 19.4528 8.16345 19.2 8.79997 19.2C9.43649 19.2 10.0469 19.4528 10.497 19.9029C10.9471 20.353 11.2 20.9634 11.2 21.6C11.2 22.2365 10.9471 22.8469 10.497 23.297C10.0469 23.7471 9.43649 24 8.79997 24C8.16345 24 7.553 23.7471 7.10291 23.297C6.65282 22.8469 6.39997 22.2365 6.39997 21.6C6.39997 20.9634 6.65282 20.353 7.10291 19.9029ZM20 20.8C19.7878 20.8 19.5843 20.8843 19.4343 21.0343C19.2843 21.1843 19.2 21.3878 19.2 21.6C19.2 21.8121 19.2843 22.0156 19.4343 22.1657C19.5843 22.3157 19.7878 22.4 20 22.4C20.2121 22.4 20.4156 22.3157 20.5657 22.1657C20.7157 22.0156 20.8 21.8121 20.8 21.6C20.8 21.3878 20.7157 21.1843 20.5657 21.0343C20.4156 20.8843 20.2121 20.8 20 20.8ZM18.3029 19.9029C18.753 19.4528 19.3634 19.2 20 19.2C20.6365 19.2 21.2469 19.4528 21.697 19.9029C22.1471 20.353 22.4 20.9634 22.4 21.6C22.4 22.2365 22.1471 22.8469 21.697 23.297C21.2469 23.7471 20.6365 24 20 24C19.3634 24 18.753 23.7471 18.3029 23.297C17.8528 22.8469 17.6 22.2365 17.6 21.6C17.6 20.9634 17.8528 20.353 18.3029 19.9029Z" fill="#6287A1"/>
</g>
<defs>
<clipPath id="clip0">
<rect width="24" height="24" fill="white"/>
</clipPath>
</defs>
</svg>
