<svg width="24" height="24" viewBox="0 0 24 24" fill="none" xmlns="http://www.w3.org/2000/svg">
<g clip-path="url(#clip0)">
<path d="M12.5664 0.233603C12.4921 0.159102 12.4038 0.0999936 12.3066 0.0596633C12.2094 0.019333 12.1052 -0.0014267 12 -0.0014267C11.8948 -0.0014267 11.7906 0.019333 11.6934 0.0596633C11.5962 0.0999936 11.5079 0.159102 11.4336 0.233603L1.6 10.0688V21.6C1.6 22.2365 1.85285 22.847 2.30294 23.2971C2.75303 23.7471 3.36348 24 4 24H20C20.6365 24 21.247 23.7471 21.6971 23.2971C22.1471 22.847 22.4 22.2365 22.4 21.6V10.0688L12.5664 0.233603Z" fill="#6287A1"/>
</g>
<defs>
<clipPath id="clip0">
<rect width="24" height="24" fill="white"/>
</clipPath>
</defs>
</svg>
