<svg width="24" height="24" viewBox="0 0 24 24" fill="none" xmlns="http://www.w3.org/2000/svg">
<g clip-path="url(#clip0)">
<path fill-rule="evenodd" clip-rule="evenodd" d="M0 4C0 3.36348 0.252856 2.75303 0.702944 2.30294C1.15303 1.85285 1.76348 1.6 2.4 1.6H15.2C15.8365 1.6 16.447 1.85285 16.8971 2.30294C17.3471 2.75303 17.6 3.36348 17.6 4V4.8H21.6C22.2365 4.8 22.847 5.05286 23.2971 5.50294C23.7471 5.95303 24 6.56348 24 7.2V20C24 20.6365 23.7471 21.247 23.2971 21.6971C22.847 22.1471 22.2365 22.4 21.6 22.4H2.4C1.76348 22.4 1.15303 22.1471 0.702944 21.6971C0.252856 21.247 0 20.6365 0 20L0 4ZM14.4 16H19.2C19.2 16 20.1 16 20.1 15.2C20.1 14.4 19.2 14.4 19.2 14.4H14.4C14.4 14.4 13.5 14.4 13.5 15.2C13.5 16 14.4 16 14.4 16Z" fill="#6287A1"/>
</g>
<defs>
<clipPath id="clip0">
<rect width="24" height="24" fill="white"/>
</clipPath>
</defs>
</svg>
